<?xml version="1.0" encoding="UTF-8" standalone="no"?>
<!-- Created with Inkscape (http://www.inkscape.org/) -->

<svg
   width="50"
   height="50"
   viewBox="0 0 13.229167 13.229167"
   version="1.1"
   id="svg1"
   xml:space="preserve"
   sodipodi:docname="描画.svg"
   inkscape:version="1.3.2 (091e20e, 2023-11-25, custom)"
   inkscape:export-filename="Play.png"
   inkscape:export-xdpi="96"
   inkscape:export-ydpi="96"
   xmlns:inkscape="http://www.inkscape.org/namespaces/inkscape"
   xmlns:sodipodi="http://sodipodi.sourceforge.net/DTD/sodipodi-0.dtd"
   xmlns="http://www.w3.org/2000/svg"
   xmlns:svg="http://www.w3.org/2000/svg"><sodipodi:namedview
     id="namedview1"
     pagecolor="#ffffff"
     bordercolor="#666666"
     borderopacity="1.0"
     inkscape:showpageshadow="2"
     inkscape:pageopacity="0.0"
     inkscape:pagecheckerboard="0"
     inkscape:deskcolor="#d1d1d1"
     inkscape:document-units="mm"
     inkscape:zoom="8.2747365"
     inkscape:cx="29.306069"
     inkscape:cy="25.922275"
     inkscape:window-width="1920"
     inkscape:window-height="1017"
     inkscape:window-x="1918"
     inkscape:window-y="-8"
     inkscape:window-maximized="1"
     inkscape:current-layer="layer5" /><defs
     id="defs1"><style
       id="style1">.canvas{fill: none; opacity: 0;}.light-green{fill: #1f801f; opacity: 1;}</style><style
       id="style1-4">.canvas{fill: none; opacity: 0;}.light-red{fill: #c50b17; opacity: 1;}.cls-1{opacity:0.75;}</style><style
       id="style1-2">.canvas{fill: none; opacity: 0;}.light-defaultgrey{fill: #212121; opacity: 1;}.cls-1{opacity:0.75;}</style><style
       id="style1-46">.canvas{fill: none; opacity: 0;}.light-green{fill: #1f801f; opacity: 1;}</style><style
       id="style1-5">.canvas{fill: none; opacity: 0;}.light-green{fill: #1f801f; opacity: 1;}</style><style
       id="style1-9">.canvas{fill: none; opacity: 0;}.light-red{fill: #c50b17; opacity: 1;}.cls-1{opacity:0.75;}</style><style
       id="style1-6">.canvas{fill: none; opacity: 0;}.light-defaultgrey{fill: #212121; opacity: 1;}.cls-1{opacity:0.75;}</style></defs><g
     inkscape:groupmode="layer"
     id="layer2"
     inkscape:label="Layer 2"
     style="display:none"
     sodipodi:insensitive="true"><g
       id="level-1-7"
       transform="scale(0.82682292)"><g
         class="cls-1"
         id="g2"><path
           class="light-red"
           d="m 12.5,3.5 v 9 h -9 v -9 z"
           id="path2-6" /></g><path
         class="light-red"
         d="m 12.5,3 h -9 L 3,3.5 v 9 L 3.5,13 h 9 L 13,12.5 v -9 z M 12,12 H 4 V 4 h 8 z"
         id="path3" /></g></g><g
     inkscape:groupmode="layer"
     id="layer3"
     inkscape:label="Layer 3"
     style="display:none"
     sodipodi:insensitive="true"><g
       id="level-1-8"
       transform="scale(0.82682292)"><g
         class="cls-1"
         id="g3"><path
           class="light-defaultgrey"
           d="m 6.5,3.5 v 9 h -3 v -9 z"
           id="path2-1" /><path
           class="light-defaultgrey"
           d="m 12.5,3.5 v 9 h -3 v -9 z"
           id="path3-0" /></g><path
         class="light-defaultgrey"
         d="m 12.5,3 h -3 L 9,3.5 v 9 L 9.5,13 h 3 L 13,12.5 v -9 z M 12,12 H 10 V 4 h 2 z M 6.5,3 h -3 L 3,3.5 v 9 L 3.5,13 h 3 L 7,12.5 v -9 z M 6,12 H 4 V 4 h 2 z"
         id="path4" /></g></g><g
     inkscape:label="Layer 1"
     inkscape:groupmode="layer"
     id="layer1"
     style="display:inline"
     transform="matrix(3.125,0,0,3.125,-17.616346,-14.818548)"
     sodipodi:insensitive="true"><g
       id="level-1"
       transform="matrix(0.26458333,0,0,0.26458333,5.6576947,4.9056466)"><path
         class="light-green"
         d="M 3.777,1.084 3,1.5 v 12 l 0.777,0.416 9,-6 V 7.084 Z"
         id="path2" /></g></g><g
     inkscape:groupmode="layer"
     id="layer4"
     inkscape:label="Layer 4"
     style="display:none"><g
       id="level-1-76"
       transform="matrix(0.51140432,0,0,0.51140432,0.31295687,2.7190198)"
       style="display:inline;fill:#ff8200;fill-opacity:1;stroke-width:0.999209;stroke-dasharray:none"><path
         class="light-green"
         d="M 3.777,1.084 3,1.5 v 12 l 0.777,0.416 9,-6 V 7.084 Z"
         id="path2-3"
         style="opacity:1;fill:#ff8200;fill-opacity:1;stroke-width:0.999209;stroke-dasharray:none" /></g><g
       id="level-1-76-8"
       transform="matrix(0.51140432,0,0,0.51140432,5.8734137,2.7186377)"
       style="display:inline;fill:#ff8200;fill-opacity:1;stroke-width:0.999209;stroke-dasharray:none"><path
         class="light-green"
         d="m 2.7422675,1.084 -0.777,0.416 v 12 l 0.777,0.416 9.0000005,-6 V 7.084 Z"
         id="path2-3-7"
         style="opacity:1;fill:#ff8200;fill-opacity:1;stroke-width:0.999209;stroke-dasharray:none" /></g></g><g
     inkscape:groupmode="layer"
     id="layer5"
     inkscape:label="Layer 5"
     style="display:none"><g
       id="g7"
       transform="rotate(180,11.749175,5.4588136)"
       style="fill:#00ff76;fill-opacity:1"><g
         id="level-1-76-3"
         transform="matrix(0.51140432,0,0,0.51140432,10.107454,0.504353)"
         style="display:inline;fill:#00ff76;fill-opacity:1"><path
           class="light-green"
           d="M 3.777,1.084 3,1.5 v 12 l 0.777,0.416 9,-6 V 7.084 Z"
           id="path2-3-8"
           style="opacity:1;fill:#00ff76;fill-opacity:1" /></g><path
         class="light-green"
         d="m 17.070318,1.0583333 -0.397361,0.2127442 v 6.1368517 l 0.397361,0.2127442 4.602639,-3.0684258 V 4.1267592 Z"
         id="path2-3-7-2"
         style="display:inline;fill:#00ff76;fill-opacity:1;stroke-width:0.511404" /></g></g></svg>
